<?xml version="1.0" standalone="no"?>
<!-- Generator: Adobe Fireworks 10, Export SVG Extension by Aaron Beall (http://fireworks.abeall.com) . Version: 0.6.1  -->
<!DOCTYPE svg PUBLIC "-//W3C//DTD SVG 1.1//EN" "http://www.w3.org/Graphics/SVG/1.1/DTD/svg11.dtd">
<svg id="Untitled-P%E1gina%201" viewBox="0 0 26 26" style="background-color:#ffffff00" version="1.1"
	xmlns="http://www.w3.org/2000/svg" xmlns:xlink="http://www.w3.org/1999/xlink" xml:space="preserve"
	x="0px" y="0px" width="26px" height="26px"
>
	<g id="Capa%201">
		<path id="social" d="M 12.8 1.6428 C 19.346 1.6428 24.4572 6.754 24.4572 13.3 C 24.4572 16.4295 23.4555 19.0663 21.4684 21.1888 C 19.6113 19.9164 17.9599 19.2504 17.2127 18.8768 L 17.2127 17.3933 C 17.3914 17.0034 17.5376 16.5703 17.6459 16.11 C 18.1765 15.9097 18.5501 15.2925 18.902 14.0526 C 19.2215 12.921 19.1944 12.1251 18.8154 11.6702 C 19.2106 9.4991 19.032 7.8964 18.2793 6.9055 C 17.8895 6.3858 17.4347 6.1584 17.1207 6.061 C 16.8987 5.7469 16.4493 5.2379 15.7021 4.8265 C 14.7763 4.2795 13.715 4.0522 12.5726 4.1496 C 12.1394 4.1713 11.7117 4.2526 11.2948 4.3933 L 11.2894 4.3933 C 10.8237 4.5503 10.3689 4.7832 9.9303 5.0864 C 9.4322 5.4058 8.972 5.7848 8.5767 6.2017 C 7.7971 6.9976 7.2881 7.8964 7.0661 8.8548 C 6.8604 9.6453 6.8387 10.4358 7.0066 11.2154 C 6.9362 11.2695 6.8658 11.3292 6.8062 11.405 C 6.4164 11.876 6.3839 12.6286 6.7088 13.7819 C 6.9254 14.5453 7.2069 15.3304 7.6942 15.6932 C 7.8404 16.4241 8.0732 17.09 8.3927 17.6748 L 8.3927 18.8768 C 7.6509 19.2504 5.9941 19.8622 4.1369 21.1346 C 2.1499 19.0121 1.1969 16.4295 1.1969 13.3 C 1.1969 6.754 6.254 1.6428 12.8 1.6428 L 12.8 1.6428 ZM 5.117 22.1254 C 7.0661 20.8098 8.8475 20.1817 9.3402 19.938 C 9.638 19.7919 9.8275 19.4941 9.8275 19.1583 L 9.8275 17.5016 C 9.8275 17.3825 9.795 17.2687 9.7354 17.1659 C 9.3997 16.5974 9.1669 15.9152 9.0478 15.1409 C 9.0099 14.881 8.815 14.6699 8.5713 14.6049 C 8.5064 14.5236 8.3223 14.2421 8.0894 13.4246 C 7.9054 12.7748 7.9054 12.4553 7.9216 12.3254 C 8.1219 12.3254 8.3168 12.2333 8.4414 12.0709 C 8.5822 11.8922 8.6201 11.6539 8.5442 11.4428 C 8.2844 10.7065 8.2519 9.9539 8.4522 9.185 C 8.6255 8.4486 9.0207 7.7556 9.6326 7.1276 C 9.9628 6.7756 10.2336 6.5699 10.6396 6.3154 C 10.645 6.31 10.6559 6.3046 10.6613 6.2991 C 11.0024 6.061 11.3543 5.8822 11.7063 5.7631 L 11.7117 5.7631 C 12.0095 5.6603 12.3181 5.6061 12.6484 5.5898 C 13.5363 5.514 14.3323 5.6766 15.0307 6.0934 C 15.7996 6.5157 16.1082 7.068 16.1082 7.068 C 16.2165 7.2737 16.4222 7.4091 16.6496 7.4254 C 16.6551 7.4254 16.8391 7.3712 17.1044 7.7177 C 17.4185 8.1347 17.8624 9.2175 17.321 11.8327 C 17.2615 12.1305 17.4076 12.4283 17.6729 12.5582 C 17.6946 12.6611 17.7217 12.9752 17.5159 13.7061 C 17.3319 14.3558 17.1802 14.6644 17.0882 14.8052 C 16.9745 14.7889 16.85 14.8052 16.7417 14.8485 C 16.5359 14.9352 16.3843 15.1246 16.3464 15.3412 C 16.2381 15.953 16.0703 16.4999 15.8429 16.9656 C 15.7996 17.0576 15.7779 17.155 15.7779 17.2525 L 15.7779 19.1692 C 15.7779 19.5049 15.962 19.8027 16.2652 19.9489 C 16.7633 20.1926 18.4364 20.826 20.3801 22.1362 C 18.3064 23.9014 15.7346 24.968 12.8054 24.968 C 9.8708 24.9572 7.1907 23.8906 5.117 22.1254 L 5.117 22.1254 ZM -0.4003 13.3 C -0.4003 20.577 5.523 26.5002 12.8 26.5002 C 20.077 26.5002 26.0003 20.577 26.0003 13.3 C 26.0003 6.023 20.077 0.0997 12.8 0.0997 C 5.523 0.0997 -0.4003 6.023 -0.4003 13.3 L -0.4003 13.3 Z" fill="#000000"/>
	</g>
</svg>