<?xml version="1.0" standalone="no"?>
<!-- Generator: Adobe Fireworks 10, Export SVG Extension by Aaron Beall (http://fireworks.abeall.com) . Version: 0.6.1  -->
<!DOCTYPE svg PUBLIC "-//W3C//DTD SVG 1.1//EN" "http://www.w3.org/Graphics/SVG/1.1/DTD/svg11.dtd">
<svg id="Untitled-P%E1gina%201" viewBox="0 0 24 24" style="background-color:#ffffff00" version="1.1"
	xmlns="http://www.w3.org/2000/svg" xmlns:xlink="http://www.w3.org/1999/xlink" xml:space="preserve"
	x="0px" y="0px" width="24px" height="24px"
>
	<path d="M 23.5 4.1324 L 17.9805 -0.5 L 16.4324 1.3363 L 21.952 5.9682 L 23.5 4.1324 ZM 6.5559 1.3363 L 5.0201 -0.5 L -0.5 4.1201 L 1.048 5.9565 L 6.5559 1.3363 ZM 12.1 6.8682 L 10.3 6.8682 L 10.3 14.0681 L 16 17.4877 L 16.9 16.0123 L 12.1 13.1682 L 12.1 6.8682 ZM 11.5 2.0681 C 5.5357 2.0681 0.7 6.9039 0.7 12.8682 C 0.7 18.8318 5.524 23.6682 11.5 23.6682 C 17.4637 23.6682 22.3 18.8318 22.3 12.8682 C 22.3 6.9039 17.4637 2.0681 11.5 2.0681 ZM 11.5 21.2682 C 6.8559 21.2682 3.1 17.5123 3.1 12.8682 C 3.1 8.224 6.8559 4.4682 11.5 4.4682 C 16.1441 4.4682 19.9 8.224 19.9 12.8682 C 19.9 17.5123 16.1441 21.2682 11.5 21.2682 Z" fill="#000000"/>
</svg>