<?xml version="1.0" standalone="no"?>
<!-- Generator: Adobe Fireworks 10, Export SVG Extension by Aaron Beall (http://fireworks.abeall.com) . Version: 0.6.1  -->
<!DOCTYPE svg PUBLIC "-//W3C//DTD SVG 1.1//EN" "http://www.w3.org/Graphics/SVG/1.1/DTD/svg11.dtd">
<svg id="Untitled-P%E1gina%201" viewBox="0 0 23 24" style="background-color:#ffffff00" version="1.1"
	xmlns="http://www.w3.org/2000/svg" xmlns:xlink="http://www.w3.org/1999/xlink" xml:space="preserve"
	x="0px" y="0px" width="23px" height="24px"
>
	<g id="Capa%201">
		<path d="M 20.2094 13.176 C 20.2563 12.7922 20.2918 12.4078 20.2918 12 C 20.2918 11.5922 20.2563 11.2078 20.2094 10.824 L 22.6826 8.8441 C 22.9058 8.6643 22.9641 8.3402 22.8233 8.076 L 20.4795 3.924 C 20.3387 3.6598 20.0217 3.5643 19.7642 3.6598 L 16.8458 4.8598 C 16.237 4.3799 15.5812 3.9838 14.8659 3.6838 L 14.4207 0.5039 C 14.3852 0.2162 14.1392 0 13.8462 0 L 9.1585 0 C 8.8655 0 8.6194 0.2162 8.5839 0.5039 L 8.1387 3.6838 C 7.424 3.9838 6.7677 4.3922 6.1582 4.8598 L 3.2404 3.6598 C 2.9709 3.552 2.6659 3.6598 2.5251 3.924 L 0.1813 8.076 C 0.0291 8.3402 0.0995 8.6643 0.3221 8.8441 L 2.7947 10.824 C 2.7477 11.2078 2.7128 11.6039 2.7128 12 C 2.7128 12.3961 2.7477 12.7922 2.7947 13.176 L 0.3221 15.1559 C 0.0995 15.3363 0.0411 15.6598 0.1813 15.9234 L 2.5251 20.0766 C 2.6659 20.3402 2.9824 20.4363 3.2404 20.3402 L 6.1582 19.1402 C 6.7677 19.6195 7.424 20.0156 8.1387 20.3156 L 8.5839 23.4961 C 8.6194 23.7844 8.8655 24 9.1585 24 L 13.8462 24 C 14.1392 24 14.3852 23.7844 14.4207 23.4961 L 14.8659 20.3156 C 15.5812 20.0156 16.237 19.6078 16.8458 19.1402 L 19.7642 20.3402 C 20.0343 20.448 20.3387 20.3402 20.4795 20.0766 L 22.8233 15.9234 C 22.9641 15.6598 22.9058 15.3363 22.6826 15.1559 L 20.2094 13.176 ZM 11.5023 16.2 C 9.2403 16.2 7.4006 14.3156 7.4006 12 C 7.4006 9.6838 9.2403 7.8 11.5023 7.8 C 13.7638 7.8 15.6041 9.6838 15.6041 12 C 15.6041 14.3156 13.7638 16.2 11.5023 16.2 Z" fill="#000000"/>
	</g>
</svg>