<?xml version="1.0" standalone="no"?>
<!-- Generator: Adobe Fireworks 10, Export SVG Extension by Aaron Beall (http://fireworks.abeall.com) . Version: 0.6.1  -->
<!DOCTYPE svg PUBLIC "-//W3C//DTD SVG 1.1//EN" "http://www.w3.org/Graphics/SVG/1.1/DTD/svg11.dtd">
<svg id="Untitled-P%E1gina%201" viewBox="0 0 20 27" style="background-color:#ffffff00" version="1.1"
	xmlns="http://www.w3.org/2000/svg" xmlns:xlink="http://www.w3.org/1999/xlink" xml:space="preserve"
	x="0px" y="0px" width="20px" height="27px"
>
	<path id="Shape%201" d="M 19.2868 25.3491 L 12 25.3491 C 11.7109 26.2554 10.8605 26.9171 9.86 26.9171 C 8.8596 26.9171 8.0092 26.2554 7.7201 25.3491 L 0.4333 25.3491 C 0.0553 25.3491 -0.2504 25.0432 -0.2504 24.6652 C -0.2504 24.287 0.0553 23.9813 0.4333 23.9813 L 7.7146 23.9813 C 7.9369 23.2863 8.4872 22.7413 9.1764 22.5189 L 9.1764 20.9731 C 9.1764 20.5951 9.4821 20.2892 9.86 20.2892 C 10.238 20.2892 10.5437 20.5951 10.5437 20.9731 L 10.5437 22.5189 C 11.2329 22.7413 11.7776 23.2918 12 23.9813 L 19.2868 23.9813 C 19.6648 23.9813 19.9705 24.287 19.9705 24.6652 C 19.9705 25.0432 19.6648 25.3491 19.2868 25.3491 ZM 9.86 23.7811 C 9.3709 23.7811 8.9763 24.1813 8.9763 24.6652 C 8.9763 25.1545 9.3709 25.5493 9.86 25.5493 C 10.3492 25.5493 10.7438 25.1545 10.7438 24.6652 C 10.7438 24.1758 10.3492 23.7811 9.86 23.7811 ZM 9.86 18.8158 C 6.086 18.8158 2.0785 17.5425 2.0785 15.1793 L 2.0785 3.3194 C 2.0785 0.9563 6.086 -0.317 9.86 -0.317 C 13.6341 -0.317 17.6416 0.9563 17.6416 3.3194 L 17.6416 15.1793 C 17.6416 17.5425 13.6341 18.8158 9.86 18.8158 ZM 9.86 1.0508 C 5.9415 1.0508 3.4403 2.3909 3.4403 3.3194 C 3.4403 4.248 5.9415 5.5991 9.86 5.5991 C 13.7786 5.5991 16.2798 4.2535 16.2798 3.325 C 16.2798 2.3964 13.7786 1.0508 9.86 1.0508 ZM 16.2798 5.4379 C 14.7847 6.4331 12.2779 6.9558 9.86 6.9558 C 7.4478 6.9558 4.9354 6.4331 3.4403 5.4379 L 3.4403 7.2727 C 3.4403 8.2013 5.9415 9.5469 9.86 9.5469 C 13.7786 9.5469 16.2798 8.2013 16.2798 7.2727 L 16.2798 5.4379 ZM 16.2798 9.3912 C 14.7847 10.3865 12.2779 10.9092 9.86 10.9092 C 7.4422 10.9092 4.9354 10.3865 3.4403 9.3912 L 3.4403 11.2261 C 3.4403 12.1546 5.9415 13.5002 9.86 13.5002 C 13.7786 13.5002 16.2798 12.1546 16.2798 11.2261 L 16.2798 9.3912 ZM 16.2798 13.3445 C 14.7847 14.3398 12.2779 14.8624 9.86 14.8624 C 7.4478 14.8624 4.9354 14.3398 3.4403 13.3445 L 3.4403 15.1793 C 3.4403 16.1079 5.9415 17.4535 9.86 17.4535 C 13.7786 17.4535 16.2798 16.1079 16.2798 15.1793 L 16.2798 13.3445 Z" fill="#000000"/>
</svg>