<?xml version="1.0" standalone="no"?>
<!-- Generator: Adobe Fireworks 10, Export SVG Extension by Aaron Beall (http://fireworks.abeall.com) . Version: 0.6.1  -->
<!DOCTYPE svg PUBLIC "-//W3C//DTD SVG 1.1//EN" "http://www.w3.org/Graphics/SVG/1.1/DTD/svg11.dtd">
<svg id="Untitled-P%E1gina%201" viewBox="0 0 16 22" style="background-color:#ffffff00" version="1.1"
	xmlns="http://www.w3.org/2000/svg" xmlns:xlink="http://www.w3.org/1999/xlink" xml:space="preserve"
	x="0px" y="0px" width="16px" height="22px"
>
	<g id="Capa%201">
		<path id="Forma%201" d="M 0 4.0107 L 0 1.8281 C 0 1.4444 0.3035 1.1333 0.6779 1.1333 L 5.3309 1.1333 L 5.3309 0.2319 C 5.3309 0.1038 5.4321 0 5.557 0 L 10.443 0 C 10.568 0 10.6693 0.1038 10.6693 0.2319 L 10.6693 1.1333 L 15.3221 1.1333 C 15.6965 1.1333 16.0001 1.4444 16 1.8281 L 16 4.0107 L 0 4.0107 ZM 14.1223 20.9391 C 14.098 21.532 13.6219 22 13.0428 22 L 2.9572 22 C 2.3782 22 1.902 21.532 1.8778 20.9391 L 1.1576 5.3571 L 14.8424 5.3571 L 14.1223 20.9391 ZM 5.7186 9.2274 C 5.7186 8.9791 5.522 8.7777 5.2797 8.7777 L 4.5778 8.7777 C 4.3355 8.7777 4.139 8.9791 4.139 9.2274 L 4.139 18.1297 C 4.139 18.3781 4.3356 18.5794 4.5778 18.5794 L 5.2797 18.5794 C 5.5221 18.5794 5.7186 18.3781 5.7186 18.1297 L 5.7186 9.2274 ZM 8.7897 9.2274 C 8.7897 8.9791 8.5933 8.7777 8.351 8.7777 L 7.6491 8.7777 C 7.4068 8.7777 7.2103 8.9791 7.2103 9.2274 L 7.2103 18.1297 C 7.2103 18.3781 7.4069 18.5794 7.6491 18.5794 L 8.351 18.5794 C 8.5933 18.5794 8.7897 18.3781 8.7897 18.1297 L 8.7897 9.2274 ZM 11.861 9.2274 C 11.861 8.9791 11.6645 8.7777 11.4222 8.7777 L 10.7203 8.7777 C 10.478 8.7777 10.2816 8.9791 10.2816 9.2274 L 10.2816 18.1297 C 10.2816 18.3781 10.478 18.5794 10.7203 18.5794 L 11.4222 18.5794 C 11.6646 18.5794 11.861 18.3781 11.861 18.1297 L 11.861 9.2274 Z" fill="#999c9e"/>
	</g>
</svg>