<?xml version="1.0" standalone="no"?>
<!-- Generator: Adobe Fireworks 10, Export SVG Extension by Aaron Beall (http://fireworks.abeall.com) . Version: 0.6.1  -->
<!DOCTYPE svg PUBLIC "-//W3C//DTD SVG 1.1//EN" "http://www.w3.org/Graphics/SVG/1.1/DTD/svg11.dtd">
<svg id="Untitled-P%E1gina%201" viewBox="0 0 32 27" style="background-color:#ffffff00" version="1.1"
	xmlns="http://www.w3.org/2000/svg" xmlns:xlink="http://www.w3.org/1999/xlink" xml:space="preserve"
	x="0px" y="0px" width="32px" height="27px"
>
	<g id="Capa%201">
		<path id="Shape%201" d="M 29.6058 16.9559 C 28.2857 16.9559 27.2116 15.9093 27.2116 14.623 C 27.2116 14.3004 27.2792 13.9929 27.4013 13.7131 L 24.5386 11.4818 C 24.0725 11.8942 23.4892 12.1822 22.8441 12.2943 L 22.8441 13.6599 C 22.8441 14.0028 22.5587 14.281 22.2067 14.281 C 21.8547 14.281 21.5692 14.0028 21.5692 13.6599 L 21.5692 12.2817 C 20.6649 12.1051 19.8887 11.5796 19.3947 10.856 L 14.0508 13.1913 C 14.0646 13.2924 14.0724 13.3954 14.0724 13.5001 C 14.0724 14.7449 13.0664 15.765 11.8051 15.8296 L 10.6746 20.495 C 11.3674 20.9042 11.8314 21.6459 11.8314 22.4913 C 11.8314 23.7776 10.7573 24.8242 9.4371 24.8242 C 8.6118 24.8242 7.8828 24.4152 7.4521 23.7943 L 4.7866 24.5969 C 4.7874 24.6202 4.7885 24.6436 4.7885 24.6671 C 4.7885 25.9534 3.7144 27 2.3942 27 C 1.0741 27 0 25.9534 0 24.6671 C 0 23.3809 1.0741 22.3342 2.3944 22.3341 C 3.2397 22.3341 3.9836 22.7637 4.4097 23.41 L 7.0467 22.616 C 7.0444 22.5747 7.0432 22.533 7.0432 22.4912 C 7.0432 21.2049 8.1172 20.1583 9.4373 20.1583 C 9.4403 20.1583 9.4433 20.1586 9.4463 20.1586 L 10.5602 15.5619 C 9.802 15.17 9.2841 14.3929 9.2841 13.4999 C 9.2841 12.2136 10.3582 11.1671 11.6783 11.1671 C 12.4357 11.1671 13.1115 11.5119 13.5506 12.0485 L 18.8996 9.7109 C 18.8504 9.4867 18.8241 9.2542 18.8241 9.0159 C 18.8241 7.4037 20.0057 6.0557 21.5694 5.7501 L 21.5694 4.4266 C 21.5694 4.0837 21.8548 3.8055 22.2068 3.8055 C 22.5588 3.8055 22.8442 4.0837 22.8442 4.4266 L 22.8442 5.7375 C 24.4432 6.0154 25.6613 7.3791 25.6613 9.0159 C 25.6613 9.5449 25.5335 10.0452 25.3072 10.4899 L 28.1942 12.7402 C 28.5903 12.4575 29.0782 12.29 29.6057 12.29 C 30.9259 12.29 32 13.3365 32 14.6229 C 32 15.9092 30.926 16.9559 29.6058 16.9559 ZM 2.3944 23.5762 C 1.7771 23.5762 1.275 24.0656 1.275 24.6669 C 1.275 25.2684 1.7771 25.7576 2.3944 25.7576 C 3.0115 25.7576 3.5137 25.2684 3.5137 24.6669 C 3.5137 24.0656 3.0116 23.5762 2.3944 23.5762 ZM 9.4373 21.4004 C 8.8201 21.4004 8.318 21.8897 8.318 22.4911 C 8.318 23.0926 8.8201 23.5818 9.4373 23.5818 C 10.0545 23.5818 10.5566 23.0926 10.5566 22.4911 C 10.5566 21.8897 10.0545 21.4004 9.4373 21.4004 ZM 11.6782 12.4092 C 11.061 12.4092 10.5588 12.8984 10.5588 13.4999 C 10.5588 14.1013 11.061 14.5905 11.6782 14.5905 C 12.2954 14.5905 12.7976 14.1013 12.7976 13.4999 C 12.7976 12.8984 12.2954 12.4092 11.6782 12.4092 ZM 22.2427 6.927 C 21.0607 6.927 20.0989 7.8641 20.0989 9.0159 C 20.0989 10.1677 21.0607 11.1046 22.2427 11.1046 C 23.4248 11.1046 24.3865 10.1676 24.3865 9.0159 C 24.3865 7.8641 23.4248 6.927 22.2427 6.927 ZM 29.6057 13.5321 C 28.9885 13.5321 28.4864 14.0214 28.4864 14.6228 C 28.4864 15.2243 28.9885 15.7135 29.6057 15.7135 C 30.223 15.7135 30.7251 15.2243 30.7251 14.6228 C 30.7251 14.0214 30.223 13.5321 29.6057 13.5321 ZM 22.2427 9.8514 C 21.7698 9.8514 21.3852 9.4766 21.3852 9.0159 C 21.3852 8.5551 21.7698 8.1803 22.2427 8.1803 C 22.7156 8.1803 23.1003 8.5552 23.1003 9.0159 C 23.1003 9.4766 22.7156 9.8514 22.2427 9.8514 ZM 22.2067 3.0513 C 21.8547 3.0513 21.5693 2.7733 21.5693 2.4302 L 21.5693 0.6212 C 21.5693 0.2781 21.8547 0 22.2067 0 C 22.5587 0 22.8442 0.2781 22.8442 0.6212 L 22.8442 2.4302 C 22.8442 2.7732 22.5587 3.0513 22.2067 3.0513 ZM 22.2067 15.035 C 22.5588 15.035 22.8442 15.313 22.8442 15.6561 L 22.8442 17.4652 C 22.8442 17.8082 22.5587 18.0863 22.2067 18.0863 C 21.8547 18.0863 21.5693 17.8082 21.5693 17.4652 L 21.5693 15.6561 C 21.5693 15.3131 21.8547 15.035 22.2067 15.035 ZM 22.2067 18.8405 C 22.5588 18.8405 22.8442 19.1186 22.8442 19.4615 L 22.8442 21.2708 C 22.8442 21.6136 22.5587 21.8918 22.2067 21.8918 C 21.8547 21.8918 21.5693 21.6136 21.5693 21.2708 L 21.5693 19.4615 C 21.5693 19.1185 21.8547 18.8405 22.2067 18.8405 ZM 22.2067 22.6461 C 22.5588 22.6461 22.8442 22.9241 22.8442 23.2671 L 22.8442 25.0763 C 22.8442 25.4193 22.5587 25.6974 22.2067 25.6974 C 21.8547 25.6974 21.5693 25.4193 21.5693 25.0763 L 21.5693 23.2671 C 21.5693 22.9242 21.8547 22.6461 22.2067 22.6461 Z" fill="#000000"/>
	</g>
</svg>