<?xml version="1.0" standalone="no"?>
<!-- Generator: Adobe Fireworks 10, Export SVG Extension by Aaron Beall (http://fireworks.abeall.com) . Version: 0.6.1  -->
<!DOCTYPE svg PUBLIC "-//W3C//DTD SVG 1.1//EN" "http://www.w3.org/Graphics/SVG/1.1/DTD/svg11.dtd">
<svg id="Untitled-P%E1gina%201" viewBox="0 0 28 28" style="background-color:#ffffff00" version="1.1"
	xmlns="http://www.w3.org/2000/svg" xmlns:xlink="http://www.w3.org/1999/xlink" xml:space="preserve"
	x="0px" y="0px" width="28px" height="28px"
>
	<g id="Capa%201">
		<path id="Forma%201" d="M 26.1333 21.8 L 26.5667 21.8 C 26.8063 21.8 27 21.9937 27 22.2333 C 27 22.473 26.8063 22.6666 26.5667 22.6666 L 26.1333 22.6666 L 14.4333 22.6666 L 14.4333 23.5333 C 14.4333 23.5537 14.4242 23.5715 14.4216 23.5914 C 15.1735 23.7808 15.7333 24.4567 15.7333 25.2667 C 15.7333 26.2225 14.9559 27 14 27 C 13.0441 27 12.2667 26.2225 12.2667 25.2667 C 12.2667 24.4567 12.8265 23.7808 13.5784 23.5914 C 13.5758 23.5715 13.5667 23.5537 13.5667 23.5333 L 13.5667 22.6666 L 1.8667 22.6666 L 1.4333 22.6666 C 1.1937 22.6666 1 22.473 1 22.2333 C 1 21.9937 1.1937 21.8 1.4333 21.8 L 1.8667 21.8 L 1.8667 4.4667 L 1 4.4667 L 1 1 L 27 1 L 27 4.4667 L 26.1333 4.4667 L 26.1333 21.8 ZM 13.1333 25.2667 C 13.1333 25.7446 13.522 26.1334 14 26.1334 C 14.478 26.1334 14.8667 25.7446 14.8667 25.2667 C 14.8667 24.7887 14.478 24.4 14 24.4 C 13.522 24.4 13.1333 24.7887 13.1333 25.2667 ZM 2.7333 21.8 L 25.2667 21.8 L 25.2667 4.4667 L 2.7333 4.4667 L 2.7333 21.8 ZM 26.1333 1.8666 L 1.8667 1.8666 L 1.8667 3.6 L 26.1333 3.6 L 26.1333 1.8666 ZM 23.5333 20.5 C 23.2937 20.5 23.1 20.3063 23.1 20.0667 L 23.1 16.6 C 23.1 16.3604 23.2937 16.1666 23.5333 16.1666 C 23.773 16.1666 23.9667 16.3604 23.9667 16.6 L 23.9667 20.0667 C 23.9667 20.3063 23.773 20.5 23.5333 20.5 ZM 23.5333 9.2333 C 23.4207 9.2333 23.3076 9.1857 23.2256 9.1077 C 23.1472 9.0253 23.1 8.9127 23.1 8.8 C 23.1 8.6873 23.1472 8.5742 23.2256 8.4923 C 23.386 8.332 23.6806 8.332 23.841 8.4923 C 23.919 8.5742 23.9667 8.6873 23.9667 8.8 C 23.9667 8.9127 23.919 9.0253 23.841 9.1077 C 23.7587 9.1857 23.646 9.2333 23.5333 9.2333 ZM 23.5333 7.0667 L 22.2333 7.0667 C 21.9937 7.0667 21.8 6.873 21.8 6.6334 C 21.8 6.3937 21.9937 6.2 22.2333 6.2 L 23.5333 6.2 C 23.773 6.2 23.9667 6.3937 23.9667 6.6334 C 23.9667 6.873 23.773 7.0667 23.5333 7.0667 ZM 21.3667 9.2333 L 17.9 9.2333 C 17.6604 9.2333 17.4667 9.0396 17.4667 8.8 C 17.4667 8.5604 17.6604 8.3666 17.9 8.3666 L 21.3667 8.3666 C 21.6063 8.3666 21.8 8.5604 21.8 8.8 C 21.8 9.0396 21.6063 9.2333 21.3667 9.2333 ZM 20.5 7.0667 C 20.3873 7.0667 20.2742 7.019 20.1923 6.941 C 20.1139 6.8587 20.0667 6.746 20.0667 6.6334 C 20.0667 6.5207 20.1139 6.4076 20.1923 6.3257 C 20.3527 6.1653 20.6473 6.1653 20.8077 6.3257 C 20.8857 6.4076 20.9333 6.5159 20.9333 6.6334 C 20.9333 6.746 20.8857 6.8587 20.8077 6.941 C 20.7253 7.019 20.6127 7.0667 20.5 7.0667 ZM 18.7667 7.0667 L 17.9 7.0667 C 17.6604 7.0667 17.4667 6.873 17.4667 6.6334 C 17.4667 6.3937 17.6604 6.2 17.9 6.2 L 18.7667 6.2 C 19.0063 6.2 19.2 6.3937 19.2 6.6334 C 19.2 6.873 19.0063 7.0667 18.7667 7.0667 ZM 16.6 20.5 C 16.3604 20.5 16.1666 20.3063 16.1666 20.0667 L 16.1666 18.7667 C 16.1666 18.5271 16.3604 18.3334 16.6 18.3334 C 16.8396 18.3334 17.0333 18.5271 17.0333 18.7667 L 17.0333 20.0667 C 17.0333 20.3063 16.8396 20.5 16.6 20.5 ZM 14.429 10.9801 L 14.4203 11.1707 L 14.4121 11.1777 C 14.3007 12.479 13.6867 13.636 12.7659 14.4597 C 12.7594 14.4671 12.7572 14.4762 12.7503 14.4832 C 12.739 14.4944 12.7242 14.4988 12.7121 14.5083 C 11.8368 15.2693 10.6975 15.7333 9.45 15.7333 C 6.7022 15.7333 4.4667 13.4978 4.4667 10.75 C 4.4667 8.1392 6.486 5.9951 9.0444 5.787 L 9.0487 5.7823 L 9.2199 5.7719 C 9.2567 5.7701 9.2936 5.7736 9.3308 5.7727 C 9.3707 5.7719 9.4097 5.7667 9.45 5.7667 C 9.5068 5.7667 9.5618 5.7732 9.6173 5.7758 C 9.6862 5.7783 9.7551 5.781 9.824 5.7861 C 9.9397 5.7949 10.0532 5.8083 10.1663 5.8247 C 10.2144 5.8321 10.2625 5.8386 10.3101 5.8469 C 10.4397 5.8694 10.5671 5.8979 10.6932 5.9305 C 10.7279 5.9391 10.7622 5.9474 10.7964 5.9569 C 10.9272 5.9938 11.0551 6.0367 11.1816 6.0839 C 11.2145 6.096 11.2479 6.1072 11.2808 6.1202 C 11.3991 6.1671 11.514 6.2195 11.6275 6.275 C 11.6695 6.2953 11.712 6.3145 11.7536 6.3361 C 11.8481 6.3855 11.9391 6.4401 12.0301 6.4955 C 12.0877 6.5306 12.1458 6.5632 12.2021 6.6003 C 12.2658 6.6429 12.3261 6.6896 12.3876 6.7347 C 12.4643 6.7906 12.5423 6.8447 12.6159 6.9055 C 12.6229 6.9111 12.6289 6.9171 12.6354 6.9228 C 12.7516 7.0194 12.8655 7.1191 12.973 7.2266 C 13.0861 7.3397 13.1914 7.4589 13.2924 7.5814 C 13.2928 7.5819 13.2932 7.5819 13.2932 7.5824 C 13.3582 7.6612 13.4163 7.7444 13.4761 7.8268 C 13.5164 7.8823 13.5584 7.9359 13.5966 7.9928 C 13.639 8.0569 13.6768 8.1236 13.7162 8.1895 C 13.7656 8.2709 13.8145 8.352 13.8592 8.4364 C 13.8869 8.4893 13.9112 8.5439 13.9372 8.5977 C 13.9857 8.6982 14.0329 8.7996 14.0745 8.9041 C 14.0932 8.9513 14.1096 8.9994 14.127 9.0471 C 14.1677 9.1584 14.2058 9.271 14.2388 9.3859 C 14.2531 9.4353 14.2648 9.4855 14.2773 9.5354 C 14.3051 9.6467 14.3306 9.7585 14.351 9.8725 C 14.3618 9.9336 14.3705 9.9951 14.3792 10.0566 C 14.3935 10.1581 14.406 10.2599 14.4138 10.3635 C 14.4199 10.4398 14.4229 10.5165 14.4255 10.5931 C 14.4268 10.6455 14.4333 10.6971 14.4333 10.75 C 14.4333 10.7895 14.4281 10.8276 14.4281 10.8666 C 14.4273 10.9048 14.4307 10.942 14.429 10.9801 ZM 13.5103 11.4 L 10.2794 11.4 L 12.4448 13.5653 C 12.9973 12.9786 13.3777 12.2307 13.5103 11.4 ZM 9.0539 11.4 L 8.816 11.4 L 8.8009 10.9701 C 8.8009 10.968 8.8004 10.9662 8.8004 10.9641 L 8.8 10.9506 L 8.8 6.6896 C 6.8387 7.003 5.3334 8.7016 5.3334 10.75 C 5.3334 13.0198 7.1802 14.8666 9.45 14.8666 C 10.3184 14.8666 11.1235 14.595 11.7883 14.1343 L 9.0539 11.4 ZM 13.5493 10.4042 C 13.5454 10.3591 13.5415 10.3141 13.5363 10.2694 C 13.5246 10.171 13.5099 10.074 13.4917 9.9778 C 13.4861 9.9487 13.4813 9.9197 13.4752 9.8907 C 13.4501 9.7724 13.4207 9.6563 13.3855 9.5423 C 13.3834 9.5354 13.3816 9.528 13.3795 9.5211 C 12.9773 8.2375 11.9625 7.2227 10.6789 6.8206 C 10.672 6.8184 10.6646 6.8166 10.6577 6.8145 C 10.5437 6.7794 10.4272 6.7499 10.3093 6.7249 C 10.2803 6.7188 10.2512 6.7139 10.2222 6.7083 C 10.126 6.6901 10.0289 6.6754 9.9306 6.6637 C 9.8859 6.6584 9.8409 6.6541 9.7958 6.6507 C 9.7529 6.6472 9.7096 6.6467 9.6666 6.6442 L 9.6666 10.5333 L 13.5558 10.5333 C 13.5536 10.4904 13.5528 10.4467 13.5493 10.4042 ZM 5.3334 17.4667 L 9.6666 17.4667 C 9.9063 17.4667 10.1 17.6604 10.1 17.9 C 10.1 18.1396 9.9063 18.3334 9.6666 18.3334 L 5.3334 18.3334 C 5.0937 18.3334 4.9 18.1396 4.9 17.9 C 4.9 17.6604 5.0937 17.4667 5.3334 17.4667 ZM 5.3334 19.2 L 11.8334 19.2 C 12.073 19.2 12.2667 19.3937 12.2667 19.6334 C 12.2667 19.873 12.073 20.0667 11.8334 20.0667 L 5.3334 20.0667 C 5.0937 20.0667 4.9 19.873 4.9 19.6334 C 4.9 19.3937 5.0937 19.2 5.3334 19.2 ZM 18.3334 16.6 C 18.573 16.6 18.7667 16.7937 18.7667 17.0333 L 18.7667 20.0667 C 18.7667 20.3063 18.573 20.5 18.3334 20.5 C 18.0937 20.5 17.9 20.3063 17.9 20.0667 L 17.9 17.0333 C 17.9 16.7937 18.0937 16.6 18.3334 16.6 ZM 20.0667 17.4667 C 20.3063 17.4667 20.5 17.6604 20.5 17.9 L 20.5 20.0667 C 20.5 20.3063 20.3063 20.5 20.0667 20.5 C 19.827 20.5 19.6333 20.3063 19.6333 20.0667 L 19.6333 17.9 C 19.6333 17.6604 19.827 17.4667 20.0667 17.4667 ZM 21.8 14.4333 C 22.0396 14.4333 22.2333 14.627 22.2333 14.8666 L 22.2333 20.0667 C 22.2333 20.3063 22.0396 20.5 21.8 20.5 C 21.5604 20.5 21.3667 20.3063 21.3667 20.0667 L 21.3667 14.8666 C 21.3667 14.627 21.5604 14.4333 21.8 14.4333 Z" fill="#000000"/>
	</g>
</svg>