<?xml version="1.0" standalone="no"?>
<!-- Generator: Adobe Fireworks 10, Export SVG Extension by Aaron Beall (http://fireworks.abeall.com) . Version: 0.6.1  -->
<!DOCTYPE svg PUBLIC "-//W3C//DTD SVG 1.1//EN" "http://www.w3.org/Graphics/SVG/1.1/DTD/svg11.dtd">
<svg id="Untitled-P%E1gina%201" viewBox="0 0 26 24" style="background-color:#ffffff00" version="1.1"
	xmlns="http://www.w3.org/2000/svg" xmlns:xlink="http://www.w3.org/1999/xlink" xml:space="preserve"
	x="0px" y="0px" width="26px" height="24px"
>
	<path id="Forma%201" d="M 23.8064 20.2328 L 22.0377 20.2328 C 22.0478 20.2202 22.0604 20.2051 22.0678 20.1924 L 19.8742 17.9955 L 21.0403 16.8266 L 23.0138 18.7984 C 24.0051 17.0934 24.5798 15.1191 24.5798 13.004 C 24.5798 12.9021 24.566 12.8091 24.5634 12.7084 L 21.8855 12.7084 L 21.8855 11.0556 L 24.4 11.0532 C 24.0704 9.1117 23.2654 7.3376 22.0981 5.8547 L 20.2717 7.6805 L 19.1019 6.5115 L 20.9836 4.6266 C 19.029 2.7606 16.4239 1.5817 13.5415 1.4495 L 13.5415 4.4473 L 11.8874 4.4486 L 11.8862 1.4772 C 9.3063 1.7238 6.9799 2.8242 5.1742 4.4851 L 7.0133 6.3246 L 5.8453 7.4936 L 4.0301 5.6804 C 2.7912 7.1973 1.941 9.0368 1.5987 11.0519 L 4.0201 11.0519 L 4.0201 12.7059 L 1.4358 12.7084 C 1.4333 12.8091 1.422 12.9021 1.422 13.0028 C 1.422 15.1268 2.0031 17.1123 3.0013 18.8235 L 5.102 16.9865 L 6.1906 18.2321 L 3.9378 20.2001 C 3.9465 20.2088 3.9528 20.2227 3.9623 20.2328 L 3.9001 20.2328 L 3.8541 20.273 L 3.8189 20.2328 L 2.1962 20.2328 C 0.8089 18.1667 0 15.6792 0 13.0028 C 0 5.8207 5.8195 0 12.9987 0 C 20.1811 0 26.0025 5.8207 26 13.004 C 26 15.6804 25.19 18.1667 23.8064 20.2328 ZM 12.2774 14.0472 L 8.1365 8.8903 L 13.4509 12.8002 C 14.098 12.8002 14.6238 13.3249 14.6238 13.9717 C 14.6238 14.6196 14.098 15.1482 13.4509 15.1482 C 12.8277 15.1482 12.3163 14.6613 12.2774 14.0472 ZM 18.8049 24 L 7.0906 24 L 7.0906 20.9487 L 18.8049 20.9487 L 18.8049 24 Z" fill="#000000"/>
</svg>