<?xml version="1.0" standalone="no"?>
<!-- Generator: Adobe Fireworks 10, Export SVG Extension by Aaron Beall (http://fireworks.abeall.com) . Version: 0.6.1  -->
<!DOCTYPE svg PUBLIC "-//W3C//DTD SVG 1.1//EN" "http://www.w3.org/Graphics/SVG/1.1/DTD/svg11.dtd">
<svg id="Untitled-P%E1gina%201" viewBox="0 0 26 26" style="background-color:#ffffff00" version="1.1"
	xmlns="http://www.w3.org/2000/svg" xmlns:xlink="http://www.w3.org/1999/xlink" xml:space="preserve"
	x="0px" y="0px" width="26px" height="26px"
>
	<g id="Capa%201">
		<path d="M 10.2494 18.1694 L 12.2799 20.2 L 19.48 13 L 12.2799 5.8 L 10.2494 7.8306 L 13.9647 11.56 L 0.04 11.56 L 0.04 14.44 L 13.9647 14.44 L 10.2494 18.1694 ZM 23.08 0.04 L 2.92 0.04 C 1.3218 0.04 0.04 1.3359 0.04 2.92 L 0.04 8.68 L 2.92 8.68 L 2.92 2.92 L 23.08 2.92 L 23.08 23.08 L 2.92 23.08 L 2.92 17.32 L 0.04 17.32 L 0.04 23.08 C 0.04 24.6634 1.3218 25.96 2.92 25.96 L 23.08 25.96 C 24.6635 25.96 25.96 24.6634 25.96 23.08 L 25.96 2.92 C 25.96 1.3359 24.6635 0.04 23.08 0.04 Z" fill="#696969"/>
	</g>
</svg>