<?xml version="1.0" standalone="no"?>
<!-- Generator: Adobe Fireworks 10, Export SVG Extension by Aaron Beall (http://fireworks.abeall.com) . Version: 0.6.1  -->
<!DOCTYPE svg PUBLIC "-//W3C//DTD SVG 1.1//EN" "http://www.w3.org/Graphics/SVG/1.1/DTD/svg11.dtd">
<svg id="Untitled-P%E1gina%201" viewBox="0 0 24 28" style="background-color:#ffffff00" version="1.1"
	xmlns="http://www.w3.org/2000/svg" xmlns:xlink="http://www.w3.org/1999/xlink" xml:space="preserve"
	x="0px" y="0px" width="24px" height="28px"
>
	<path id="wifi-signal-tower" d="M 17.5562 24.8264 L 13.997 24.8264 L 11.8626 9.4032 C 12.857 9.2752 13.6282 8.4352 13.6282 7.4056 C 13.6282 6.2888 12.7218 5.3832 11.605 5.3832 C 10.4874 5.3832 9.5818 6.2896 9.5818 7.4056 C 9.5818 8.4352 10.353 9.2752 11.3466 9.4032 L 9.213 24.8264 L 5.6538 24.8264 C 4.813 24.8264 4.1322 25.5088 4.1322 26.348 C 4.1322 27.1888 4.8138 27.8696 5.6538 27.8696 L 17.557 27.8696 C 18.3978 27.8696 19.0786 27.1864 19.0786 26.348 C 19.0786 25.5088 18.3978 24.8264 17.5562 24.8264 L 17.5562 24.8264 ZM 6.0986 10.196 L 7.1338 9.1608 C 5.7578 7.784 5.7578 5.5448 7.1346 4.1696 L 6.0994 3.1352 C 4.1522 5.0832 4.1522 8.2504 6.0986 10.196 L 6.0986 10.196 ZM 4.2522 12.044 L 5.2874 11.0072 C 2.8938 8.6144 2.8938 4.7192 5.2874 2.324 L 4.2522 1.2888 C 1.2866 4.2528 1.2866 9.0784 4.2522 12.044 L 4.2522 12.044 ZM 3.4994 0.5344 L 2.4634 -0.5 C -1.4878 3.4504 -1.4878 9.8816 2.4634 13.832 L 3.4978 12.7968 C 0.117 9.4168 0.1178 3.916 3.4994 0.5344 L 3.4994 0.5344 ZM 17.1114 10.196 C 19.0586 8.2496 19.0586 5.0808 17.1106 3.1352 L 16.0762 4.1696 C 17.4538 5.5472 17.4538 7.7864 16.0762 9.1608 L 17.1114 10.196 L 17.1114 10.196 ZM 17.9226 11.0072 L 18.957 12.044 C 21.9218 9.0784 21.9218 4.2536 18.957 1.2896 L 17.9226 2.324 C 20.3162 4.7168 20.3162 8.6144 17.9226 11.0072 L 17.9226 11.0072 ZM 20.7474 13.832 L 19.713 12.7968 C 23.0938 9.4152 23.093 3.9152 19.7114 0.5344 L 20.7474 -0.5 C 24.6994 3.4504 24.6994 9.8816 20.7474 13.832 L 20.7474 13.832 Z" fill="#000000"/>
</svg>