<?xml version="1.0" standalone="no"?>
<!-- Generator: Adobe Fireworks 10, Export SVG Extension by Aaron Beall (http://fireworks.abeall.com) . Version: 0.6.1  -->
<!DOCTYPE svg PUBLIC "-//W3C//DTD SVG 1.1//EN" "http://www.w3.org/Graphics/SVG/1.1/DTD/svg11.dtd">
<svg id="Untitled-P%E1gina%201" viewBox="0 0 36 36" style="background-color:#ffffff00" version="1.1"
	xmlns="http://www.w3.org/2000/svg" xmlns:xlink="http://www.w3.org/1999/xlink" xml:space="preserve"
	x="0px" y="0px" width="36px" height="36px"
>
	<g id="Capa%201">
		<g>
			<path d="M 0 18 C 0 27.923 8.077 36 18 36 C 27.923 36 36 27.923 36 18 C 36 8.0771 27.923 0 18 0 C 8.077 0 0 8.0771 0 18 ZM 7.5233 30.3298 C 10.1813 28.5356 12.4626 27.3839 13.1345 27.0517 C 13.5405 26.8523 13.799 26.4463 13.799 25.9884 L 13.799 23.7293 C 13.799 23.5669 13.7548 23.4118 13.6735 23.2716 C 13.2157 22.4962 12.8983 21.566 12.7358 20.5103 C 12.6842 20.1558 12.4183 19.868 12.0862 19.7794 C 11.9976 19.6685 11.7465 19.2846 11.4291 18.1698 C 11.178 17.2839 11.178 16.8482 11.2001 16.671 C 11.4734 16.671 11.7391 16.5455 11.9089 16.3241 C 12.101 16.0804 12.1526 15.7555 12.0492 15.4676 C 11.6948 14.4635 11.6505 13.4373 11.9237 12.3888 C 12.1599 11.3848 12.6989 10.4397 13.5332 9.5833 C 13.9835 9.1034 14.5004 8.6752 15.0541 8.3282 C 15.0615 8.3208 15.0763 8.3134 15.0836 8.306 C 15.5488 7.9811 16.0288 7.7375 16.5087 7.5751 L 16.516 7.5751 C 16.922 7.4348 17.3429 7.361 17.7933 7.3388 C 19.004 7.2354 20.0895 7.4569 21.0419 8.0254 C 22.0903 8.6013 22.511 9.3544 22.511 9.3544 C 22.6587 9.6349 22.9392 9.8195 23.2493 9.8417 C 23.2568 9.8417 23.6555 9.9155 24.0172 10.388 C 24.4454 10.9565 25.0509 12.4331 24.3125 15.9992 C 24.2313 16.4053 24.4307 16.8113 24.7924 16.9885 C 24.8219 17.1288 24.859 17.557 24.5784 18.5537 C 24.3273 19.4398 24.1206 19.8605 23.9951 20.0524 C 23.8401 20.0304 23.6703 20.0524 23.5226 20.1115 C 23.2421 20.2296 23.0353 20.4881 22.9835 20.7834 C 22.8359 21.6177 22.6071 22.3634 22.297 22.9983 C 22.2379 23.1239 22.2084 23.2568 22.2084 23.3897 L 22.2084 26.0032 C 22.2084 26.4611 22.4595 26.8671 22.8729 27.0665 C 23.5521 27.3987 25.8335 28.5579 28.484 30.3445 C 25.6563 32.7514 22.0017 34.2059 18.0074 34.2059 C 14.0057 34.1911 10.3511 32.7367 7.5233 30.3298 ZM 18 1.8089 C 26.9261 1.8089 34.191 9.0738 34.191 18 C 34.191 22.2675 32.5299 26.1584 29.8203 29.0524 C 27.288 27.3175 25.0361 26.1141 24.0172 25.6045 L 24.0172 23.5816 C 24.2609 23.0501 24.4602 22.4595 24.6078 21.8318 C 25.3314 21.5586 25.8408 20.717 26.3208 19.0263 C 26.7563 17.4832 26.7195 16.3979 26.2026 15.7777 C 26.7416 12.817 26.498 10.6317 25.4717 9.2805 C 24.9401 8.5718 24.3199 8.2617 23.8917 8.1288 C 23.589 7.7006 22.9762 7.0066 21.9574 6.4454 C 20.6948 5.6998 19.2478 5.3897 17.6899 5.5226 C 17.0992 5.5521 16.516 5.6628 15.9475 5.8548 L 15.9402 5.8548 C 15.3052 6.0689 14.6849 6.3864 14.0869 6.7998 C 13.4077 7.2354 12.7802 7.7522 12.2412 8.3208 C 11.178 9.4061 10.484 10.6317 10.1813 11.9385 C 9.9008 13.0164 9.8712 14.0943 10.1001 15.1575 C 10.0042 15.2313 9.9081 15.3125 9.8269 15.4159 C 9.2953 16.0583 9.251 17.0845 9.694 18.6571 C 9.9894 19.698 10.3733 20.7687 11.0377 21.2633 C 11.2371 22.26 11.5546 23.1682 11.9902 23.9655 L 11.9902 25.6045 C 10.9786 26.1141 8.7195 27.3175 6.187 29.0524 C 3.4774 26.1584 1.8088 22.2675 1.8088 18 C 1.8088 9.0738 9.0739 1.8089 18 1.8089 Z" fill="#696969"/>
		</g>
	</g>
</svg>