<?xml version="1.0" standalone="no"?>
<!-- Generator: Adobe Fireworks 10, Export SVG Extension by Aaron Beall (http://fireworks.abeall.com) . Version: 0.6.1  -->
<!DOCTYPE svg PUBLIC "-//W3C//DTD SVG 1.1//EN" "http://www.w3.org/Graphics/SVG/1.1/DTD/svg11.dtd">
<svg id="Untitled-P%E1gina%201" viewBox="0 0 24 24" style="background-color:#ffffff00" version="1.1"
	xmlns="http://www.w3.org/2000/svg" xmlns:xlink="http://www.w3.org/1999/xlink" xml:space="preserve"
	x="0px" y="0px" width="24px" height="24px"
>
	<g id="Capa%201">
		<path id="tools" d="M 4.9834 18.8152 C 5.3163 19.1483 5.3163 19.6881 4.9834 20.0211 C 4.8169 20.1874 4.5987 20.2707 4.3805 20.2708 C 4.1622 20.2708 3.944 20.1874 3.7776 20.0211 C 3.4447 19.6881 3.4447 19.1483 3.7776 18.8152 C 3.944 18.6489 4.1624 18.5656 4.3806 18.5656 C 4.5988 18.5656 4.817 18.6486 4.9834 18.8152 L 4.9834 18.8152 ZM 20.2393 17.8 C 21.1642 18.725 21.1642 20.23 20.2393 21.155 C 19.7912 21.6031 19.1954 21.8499 18.5617 21.8499 C 17.9281 21.8499 17.3323 21.6031 16.8842 21.155 L 12.7015 16.9724 L 15.4485 14.2255 C 15.8186 14.2858 16.1938 14.3162 16.569 14.3162 C 16.6299 14.3162 16.6903 14.3134 16.7509 14.3118 L 20.2393 17.8 L 20.2393 17.8 ZM 14.2065 4.5179 L 15.3112 8.642 L 19.4354 9.7469 L 21.8585 7.3237 C 21.8757 8.7291 21.3323 10.1035 20.3087 11.1273 C 19.3101 12.1258 17.982 12.6757 16.5689 12.6757 C 16.1632 12.6757 15.7575 12.6293 15.3632 12.5377 L 14.9195 12.4345 L 5.188 22.1661 L 2.5134 21.4399 L 1.7873 18.7653 L 11.5191 9.0337 L 11.4159 8.5901 C 10.9983 6.7942 11.5254 4.9454 12.8263 3.6447 C 13.84 2.6312 15.1965 2.0775 16.6287 2.096 L 14.2065 4.5179 L 14.2065 4.5179 ZM -0.045 18.2777 L 1.1766 22.7766 L 5.6756 23.9982 L 11.5415 18.1324 L 15.7242 22.3149 C 16.4821 23.0728 17.4899 23.4902 18.5616 23.4902 C 19.6335 23.4902 20.6412 23.0728 21.399 22.3149 C 22.9637 20.7503 22.9637 18.2045 21.399 16.64 L 18.7309 13.9719 C 19.7516 13.6379 20.6874 13.0683 21.4686 12.2871 C 23.2805 10.4752 23.9438 7.8245 23.1994 5.3696 L 22.8023 4.0598 L 18.945 7.9171 L 16.6507 7.3024 L 16.0361 5.008 L 19.8933 1.1509 L 18.5837 0.7537 C 17.93 0.5554 17.2513 0.4549 16.5662 0.4549 C 14.7151 0.4549 12.9748 1.1757 11.6661 2.4845 C 10.0719 4.0785 9.3644 6.3001 9.7274 8.5051 L 9.2383 8.9941 L 4.2558 4.0118 L 3.2597 2.6768 L 1.7559 1.7136 L 1.2891 2.1803 L 1.2643 2.2051 L 0.7975 2.6718 L 1.7609 4.1755 L 3.0959 5.1718 L 8.0785 10.1543 L -0.045 18.2777 L -0.045 18.2777 Z" fill="#000000"/>
	</g>
</svg>