<?xml version="1.0" standalone="no"?>
<!-- Generator: Adobe Fireworks 10, Export SVG Extension by Aaron Beall (http://fireworks.abeall.com) . Version: 0.6.1  -->
<!DOCTYPE svg PUBLIC "-//W3C//DTD SVG 1.1//EN" "http://www.w3.org/Graphics/SVG/1.1/DTD/svg11.dtd">
<svg id="Untitled-P%E1gina%201" viewBox="0 0 25 30" style="background-color:#ffffff00" version="1.1"
	xmlns="http://www.w3.org/2000/svg" xmlns:xlink="http://www.w3.org/1999/xlink" xml:space="preserve"
	x="0px" y="0px" width="25px" height="30px"
>
	<path id="oil-pumpjack-extraction" d="M 10.1094 19.7815 L 13.7514 22.577 L 9.233 25.8508 L 10.1094 19.7815 L 10.1094 19.7815 ZM 12.6813 10.884 L 11.2153 12.1229 L 11.4668 10.3812 L 12.6813 10.884 L 12.6813 10.884 ZM 11.4893 25.8605 L 14.9858 23.327 L 15.3517 25.8605 L 11.4893 25.8605 L 11.4893 25.8605 ZM 14.0934 17.1464 L 14.7452 21.6612 L 11.2327 18.9652 L 14.0934 17.1464 L 14.0934 17.1464 ZM 13.0828 16.2109 L 10.3766 17.9315 L 10.8641 14.5558 L 13.0828 16.2109 L 13.0828 16.2109 ZM 13.7951 15.0812 L 11.6613 13.4895 L 13.3582 12.0553 L 13.7951 15.0812 L 13.7951 15.0812 ZM 19.7924 19.1935 L 18.379 19.1935 C 18.2111 19.1935 18.0752 19.3294 18.0752 19.4971 L 18.0752 25.8605 L 16.6969 25.8605 L 14.9058 13.4571 L 14.6522 11.7002 L 19.7922 13.8285 L 19.7922 19.1935 L 19.7924 19.1935 L 19.7924 19.1935 ZM 23.9761 25.8605 L 22.7238 25.8605 L 22.7238 19.4971 C 22.7238 19.3294 22.5877 19.1935 22.42 19.1935 L 21.0066 19.1935 L 21.0066 14.3312 L 21.1546 14.3924 C 21.2306 14.4239 21.3092 14.4388 21.3867 14.4388 C 21.6249 14.4388 21.851 14.2976 21.9478 14.0638 L 22.812 11.9768 C 22.8735 11.8279 22.8735 11.6608 22.8119 11.512 C 22.7503 11.3632 22.632 11.2451 22.4832 11.1835 L 9.3596 5.7497 C 9.8393 4.8349 10.2702 3.9031 10.6407 2.9801 C 10.7646 2.6712 10.6169 2.3202 10.3095 2.193 L 5.1254 0.0464 C 4.8182 -0.081 4.4653 0.0629 4.3347 0.3689 C 3.0511 3.3748 2.2232 6.7249 1.7291 10.9118 C 1.6972 11.1818 1.8487 11.44 2.0999 11.544 L 4.3218 12.4639 C 4.5727 12.5679 4.8624 12.4924 5.0308 12.279 C 5.9946 11.0568 6.8266 9.9089 7.5744 8.7696 L 10.1975 9.8557 L 10.0684 10.7496 L 9.6773 13.4571 L 7.8863 25.8605 L 3.6938 25.8605 L 0.6071 25.8605 C 0.2718 25.8605 0 26.1322 0 26.4676 L 0 29.2248 C 0 29.5601 0.2718 29.8319 0.6071 29.8319 L 23.9761 29.8319 C 24.3114 29.8319 24.5832 29.5601 24.5832 29.2248 L 24.5832 26.4676 C 24.5832 26.1322 24.3114 25.8605 23.9761 25.8605 L 23.9761 25.8605 Z" fill="#000000"/>
</svg>