<?xml version="1.0" standalone="no"?>
<!-- Generator: Adobe Fireworks 10, Export SVG Extension by Aaron Beall (http://fireworks.abeall.com) . Version: 0.6.1  -->
<!DOCTYPE svg PUBLIC "-//W3C//DTD SVG 1.1//EN" "http://www.w3.org/Graphics/SVG/1.1/DTD/svg11.dtd">
<svg id="Untitled-P%E1gina%201" viewBox="0 0 18 25" style="background-color:#ffffff00" version="1.1"
	xmlns="http://www.w3.org/2000/svg" xmlns:xlink="http://www.w3.org/1999/xlink" xml:space="preserve"
	x="0px" y="0px" width="18px" height="25px"
>
	<path id="Forma%201" d="M 8.5824 25.1953 C 3.6345 25.1953 -0.391 21.1432 -0.391 16.1631 C -0.391 11.5063 6.991 1.963 7.8326 0.8903 C 8.0137 0.6595 8.2901 0.5246 8.5821 0.5246 C 8.874 0.5246 9.1504 0.6592 9.3316 0.8903 C 10.1734 1.9633 17.5551 11.5063 17.5551 16.1631 C 17.5554 21.1432 13.5303 25.1953 8.5824 25.1953 ZM 8.5824 3.062 C 6.0839 6.3979 1.5194 13.1219 1.5194 16.1631 C 1.5194 20.0831 4.6877 23.2723 8.5824 23.2723 C 12.477 23.2723 15.6454 20.0834 15.6454 16.1631 C 15.6451 13.1219 11.0805 6.3979 8.5824 3.062 ZM 8.5824 21.3506 C 8.0548 21.3506 7.6272 20.9202 7.6272 20.3891 C 7.6272 19.858 8.0548 19.4276 8.5824 19.4276 C 10.3705 19.4276 11.8256 17.9639 11.8256 16.1641 C 11.8256 15.633 12.2532 15.2026 12.7808 15.2026 C 13.308 15.2026 13.7359 15.633 13.7359 16.1641 C 13.7356 19.0238 11.4238 21.3506 8.5824 21.3506 Z" fill="#000000"/>
</svg>